solid Exported from Blender-2.80 (sub 75)
facet normal 0.098013 0.995185 0.000000
outer loop
vertex 0.428372 -0.031687 0.789496
vertex 0.428372 -0.031687 0.750100
vertex 0.427404 -0.031592 0.750100
endloop
endfacet
facet normal 0.098013 0.995185 0.000000
outer loop
vertex 0.428372 -0.031687 0.789496
vertex 0.427404 -0.031592 0.750100
vertex 0.427404 -0.031592 0.789496
endloop
endfacet
facet normal 0.290297 0.956937 0.000000
outer loop
vertex 0.427404 -0.031592 0.789496
vertex 0.427404 -0.031592 0.750100
vertex 0.426473 -0.031309 0.750100
endloop
endfacet
facet normal 0.290269 0.956945 0.000000
outer loop
vertex 0.427404 -0.031592 0.789496
vertex 0.426473 -0.031309 0.750100
vertex 0.426473 -0.031309 0.789496
endloop
endfacet
facet normal 0.471432 0.881902 0.000000
outer loop
vertex 0.426473 -0.031309 0.789496
vertex 0.426473 -0.031309 0.750100
vertex 0.425615 -0.030851 0.750100
endloop
endfacet
facet normal 0.471393 0.881923 0.000000
outer loop
vertex 0.426473 -0.031309 0.789496
vertex 0.425615 -0.030851 0.750100
vertex 0.425615 -0.030851 0.789496
endloop
endfacet
facet normal 0.634376 0.773024 0.000000
outer loop
vertex 0.425615 -0.030851 0.789496
vertex 0.425615 -0.030851 0.750100
vertex 0.424864 -0.030234 0.750100
endloop
endfacet
facet normal 0.634377 0.773024 0.000000
outer loop
vertex 0.425615 -0.030851 0.789496
vertex 0.424864 -0.030234 0.750100
vertex 0.424864 -0.030234 0.789496
endloop
endfacet
facet normal 0.773056 0.634337 0.000000
outer loop
vertex 0.424864 -0.030234 0.789496
vertex 0.424864 -0.030234 0.750100
vertex 0.424247 -0.029482 0.750100
endloop
endfacet
facet normal 0.773007 0.634397 0.000000
outer loop
vertex 0.424864 -0.030234 0.789496
vertex 0.424247 -0.029482 0.750100
vertex 0.424247 -0.029482 0.789496
endloop
endfacet
facet normal 0.881899 0.471438 0.000000
outer loop
vertex 0.424247 -0.029482 0.789496
vertex 0.424247 -0.029482 0.750100
vertex 0.423788 -0.028624 0.750100
endloop
endfacet
facet normal 0.881940 0.471361 0.000000
outer loop
vertex 0.424247 -0.029482 0.789496
vertex 0.423788 -0.028624 0.750100
vertex 0.423788 -0.028624 0.789496
endloop
endfacet
facet normal 0.956931 0.290314 0.000000
outer loop
vertex 0.423788 -0.028624 0.789496
vertex 0.423788 -0.028624 0.750100
vertex 0.423506 -0.027694 0.750100
endloop
endfacet
facet normal 0.956931 0.290314 0.000000
outer loop
vertex 0.423788 -0.028624 0.789496
vertex 0.423506 -0.027694 0.750100
vertex 0.423506 -0.027694 0.789496
endloop
endfacet
facet normal 0.995186 0.098004 0.000000
outer loop
vertex 0.423506 -0.027694 0.789496
vertex 0.423506 -0.027694 0.750100
vertex 0.423411 -0.026726 0.750100
endloop
endfacet
facet normal 0.995186 0.098004 0.000000
outer loop
vertex 0.423506 -0.027694 0.789496
vertex 0.423411 -0.026726 0.750100
vertex 0.423411 -0.026726 0.789496
endloop
endfacet
facet normal 0.995186 -0.098004 0.000000
outer loop
vertex 0.423411 -0.026726 0.789496
vertex 0.423411 -0.026726 0.750100
vertex 0.423506 -0.025758 0.750100
endloop
endfacet
facet normal 0.995186 -0.098004 0.000000
outer loop
vertex 0.423411 -0.026726 0.789496
vertex 0.423506 -0.025758 0.750100
vertex 0.423506 -0.025758 0.789496
endloop
endfacet
facet normal 0.956931 -0.290314 0.000000
outer loop
vertex 0.423506 -0.025758 0.789496
vertex 0.423506 -0.025758 0.750100
vertex 0.423788 -0.024827 0.750100
endloop
endfacet
facet normal 0.956931 -0.290314 0.000000
outer loop
vertex 0.423506 -0.025758 0.789496
vertex 0.423788 -0.024827 0.750100
vertex 0.423788 -0.024827 0.789496
endloop
endfacet
facet normal 0.881940 -0.471361 0.000000
outer loop
vertex 0.423788 -0.024827 0.789496
vertex 0.423788 -0.024827 0.750100
vertex 0.424247 -0.023969 0.750100
endloop
endfacet
facet normal 0.881900 -0.471437 0.000000
outer loop
vertex 0.423788 -0.024827 0.789496
vertex 0.424247 -0.023969 0.750100
vertex 0.424247 -0.023969 0.789496
endloop
endfacet
facet normal 0.773009 -0.634396 0.000000
outer loop
vertex 0.424247 -0.023969 0.789496
vertex 0.424247 -0.023969 0.750100
vertex 0.424864 -0.023218 0.750100
endloop
endfacet
facet normal 0.773055 -0.634339 0.000000
outer loop
vertex 0.424247 -0.023969 0.789496
vertex 0.424864 -0.023218 0.750100
vertex 0.424864 -0.023218 0.789496
endloop
endfacet
facet normal 0.634376 -0.773024 0.000000
outer loop
vertex 0.424864 -0.023218 0.789496
vertex 0.424864 -0.023218 0.750100
vertex 0.425615 -0.022601 0.750100
endloop
endfacet
facet normal 0.634377 -0.773024 0.000000
outer loop
vertex 0.424864 -0.023218 0.789496
vertex 0.425615 -0.022601 0.750100
vertex 0.425615 -0.022601 0.789496
endloop
endfacet
facet normal 0.471392 -0.881924 0.000000
outer loop
vertex 0.425615 -0.022601 0.789496
vertex 0.425615 -0.022601 0.750100
vertex 0.426473 -0.022142 0.750100
endloop
endfacet
facet normal 0.471433 -0.881902 0.000000
outer loop
vertex 0.425615 -0.022601 0.789496
vertex 0.426473 -0.022142 0.750100
vertex 0.426473 -0.022142 0.789496
endloop
endfacet
facet normal 0.290270 -0.956945 0.000000
outer loop
vertex 0.426473 -0.022142 0.789496
vertex 0.426473 -0.022142 0.750100
vertex 0.427404 -0.021860 0.750100
endloop
endfacet
facet normal 0.290296 -0.956937 0.000000
outer loop
vertex 0.426473 -0.022142 0.789496
vertex 0.427404 -0.021860 0.750100
vertex 0.427404 -0.021860 0.789496
endloop
endfacet
facet normal 0.098015 -0.995185 0.000000
outer loop
vertex 0.427404 -0.021860 0.789496
vertex 0.427404 -0.021860 0.750100
vertex 0.428372 -0.021764 0.750100
endloop
endfacet
facet normal 0.098015 -0.995185 0.000000
outer loop
vertex 0.427404 -0.021860 0.789496
vertex 0.428372 -0.021764 0.750100
vertex 0.428372 -0.021764 0.789496
endloop
endfacet
facet normal -0.098017 -0.995185 0.000000
outer loop
vertex 0.428372 -0.021764 0.789496
vertex 0.428372 -0.021764 0.750100
vertex 0.429340 -0.021860 0.750100
endloop
endfacet
facet normal -0.098017 -0.995185 0.000000
outer loop
vertex 0.428372 -0.021764 0.789496
vertex 0.429340 -0.021860 0.750100
vertex 0.429340 -0.021860 0.789496
endloop
endfacet
facet normal -0.290297 -0.956937 0.000000
outer loop
vertex 0.429340 -0.021860 0.789496
vertex 0.429340 -0.021860 0.750100
vertex 0.430270 -0.022142 0.750100
endloop
endfacet
facet normal -0.290269 -0.956945 0.000000
outer loop
vertex 0.429340 -0.021860 0.789496
vertex 0.430270 -0.022142 0.750100
vertex 0.430270 -0.022142 0.789496
endloop
endfacet
facet normal -0.471431 -0.881903 0.000000
outer loop
vertex 0.430270 -0.022142 0.789496
vertex 0.430270 -0.022142 0.750100
vertex 0.431128 -0.022601 0.750100
endloop
endfacet
facet normal -0.471391 -0.881925 0.000000
outer loop
vertex 0.430270 -0.022142 0.789496
vertex 0.431128 -0.022601 0.750100
vertex 0.431128 -0.022601 0.789496
endloop
endfacet
facet normal -0.634426 -0.772984 0.000000
outer loop
vertex 0.431128 -0.022601 0.789496
vertex 0.431128 -0.022601 0.750100
vertex 0.431880 -0.023218 0.750100
endloop
endfacet
facet normal -0.634329 -0.773063 0.000000
outer loop
vertex 0.431128 -0.022601 0.789496
vertex 0.431880 -0.023218 0.750100
vertex 0.431880 -0.023218 0.789496
endloop
endfacet
facet normal -0.773056 -0.634337 0.000000
outer loop
vertex 0.431880 -0.023218 0.789496
vertex 0.431880 -0.023218 0.750100
vertex 0.432497 -0.023969 0.750100
endloop
endfacet
facet normal -0.773007 -0.634397 0.000000
outer loop
vertex 0.431880 -0.023218 0.789496
vertex 0.432497 -0.023969 0.750100
vertex 0.432497 -0.023969 0.789496
endloop
endfacet
facet normal -0.881900 -0.471437 0.000000
outer loop
vertex 0.432497 -0.023969 0.789496
vertex 0.432497 -0.023969 0.750100
vertex 0.432955 -0.024827 0.750100
endloop
endfacet
facet normal -0.881940 -0.471361 0.000000
outer loop
vertex 0.432497 -0.023969 0.789496
vertex 0.432955 -0.024827 0.750100
vertex 0.432955 -0.024827 0.789496
endloop
endfacet
facet normal -0.956932 -0.290313 0.000000
outer loop
vertex 0.432955 -0.024827 0.789496
vertex 0.432955 -0.024827 0.750100
vertex 0.433238 -0.025758 0.750100
endloop
endfacet
facet normal -0.956931 -0.290314 0.000000
outer loop
vertex 0.432955 -0.024827 0.789496
vertex 0.433238 -0.025758 0.750100
vertex 0.433238 -0.025758 0.789496
endloop
endfacet
facet normal -0.995196 -0.097907 0.000000
outer loop
vertex 0.433238 -0.025758 0.789496
vertex 0.433238 -0.025758 0.750100
vertex 0.433333 -0.026726 0.750100
endloop
endfacet
facet normal -0.995177 -0.098100 0.000000
outer loop
vertex 0.433238 -0.025758 0.789496
vertex 0.433333 -0.026726 0.750100
vertex 0.433333 -0.026726 0.789496
endloop
endfacet
facet normal -0.995176 0.098100 0.000000
outer loop
vertex 0.433333 -0.026726 0.789496
vertex 0.433333 -0.026726 0.750100
vertex 0.433238 -0.027694 0.750100
endloop
endfacet
facet normal -0.995196 0.097907 0.000000
outer loop
vertex 0.433333 -0.026726 0.789496
vertex 0.433238 -0.027694 0.750100
vertex 0.433238 -0.027694 0.789496
endloop
endfacet
facet normal -0.956932 0.290313 0.000000
outer loop
vertex 0.433238 -0.027694 0.789496
vertex 0.433238 -0.027694 0.750100
vertex 0.432955 -0.028624 0.750100
endloop
endfacet
facet normal -0.956931 0.290314 0.000000
outer loop
vertex 0.433238 -0.027694 0.789496
vertex 0.432955 -0.028624 0.750100
vertex 0.432955 -0.028624 0.789496
endloop
endfacet
facet normal -0.881939 0.471363 0.000000
outer loop
vertex 0.432955 -0.028624 0.789496
vertex 0.432955 -0.028624 0.750100
vertex 0.432497 -0.029482 0.750100
endloop
endfacet
facet normal -0.881900 0.471437 0.000000
outer loop
vertex 0.432955 -0.028624 0.789496
vertex 0.432497 -0.029482 0.750100
vertex 0.432497 -0.029482 0.789496
endloop
endfacet
facet normal -0.773007 0.634397 0.000000
outer loop
vertex 0.432497 -0.029482 0.789496
vertex 0.432497 -0.029482 0.750100
vertex 0.431880 -0.030234 0.750100
endloop
endfacet
facet normal -0.773007 0.634397 0.000000
outer loop
vertex 0.432497 -0.029482 0.789496
vertex 0.431880 -0.030234 0.750100
vertex 0.431880 -0.030234 0.789496
endloop
endfacet
facet normal -0.634376 0.773024 0.000000
outer loop
vertex 0.431880 -0.030234 0.789496
vertex 0.431880 -0.030234 0.750100
vertex 0.431128 -0.030851 0.750100
endloop
endfacet
facet normal -0.634425 0.772985 0.000000
outer loop
vertex 0.431880 -0.030234 0.789496
vertex 0.431128 -0.030851 0.750100
vertex 0.431128 -0.030851 0.789496
endloop
endfacet
facet normal -0.471389 0.881925 0.000000
outer loop
vertex 0.431128 -0.030851 0.789496
vertex 0.431128 -0.030851 0.750100
vertex 0.430270 -0.031309 0.750100
endloop
endfacet
facet normal -0.471389 0.881925 0.000000
outer loop
vertex 0.431128 -0.030851 0.789496
vertex 0.430270 -0.031309 0.750100
vertex 0.430270 -0.031309 0.789496
endloop
endfacet
facet normal 0.000000 0.000000 1.000000
outer loop
vertex 0.426473 -0.031309 0.750100
vertex 0.427404 -0.031592 0.750100
vertex 0.428372 -0.031687 0.750100
endloop
endfacet
facet normal 0.000000 0.000000 1.000000
outer loop
vertex 0.428372 -0.031687 0.750100
vertex 0.429340 -0.031592 0.750100
vertex 0.430270 -0.031309 0.750100
endloop
endfacet
facet normal -0.000315 0.000000 1.000000
outer loop
vertex 0.430270 -0.031309 0.750100
vertex 0.431128 -0.030851 0.750100
vertex 0.431880 -0.030234 0.750100
endloop
endfacet
facet normal 0.000000 0.000000 1.000000
outer loop
vertex 0.431880 -0.030234 0.750100
vertex 0.432497 -0.029482 0.750100
vertex 0.432955 -0.028624 0.750100
endloop
endfacet
facet normal 0.000000 0.000000 1.000000
outer loop
vertex 0.432955 -0.028624 0.750100
vertex 0.433238 -0.027694 0.750100
vertex 0.433333 -0.026726 0.750100
endloop
endfacet
facet normal 0.000000 0.000000 1.000000
outer loop
vertex 0.433333 -0.026726 0.750100
vertex 0.433238 -0.025758 0.750100
vertex 0.432955 -0.024827 0.750100
endloop
endfacet
facet normal 0.000000 0.000000 1.000000
outer loop
vertex 0.432955 -0.024827 0.750100
vertex 0.432497 -0.023969 0.750100
vertex 0.431880 -0.023218 0.750100
endloop
endfacet
facet normal -0.000315 0.000000 1.000000
outer loop
vertex 0.431880 -0.023218 0.750100
vertex 0.431128 -0.022601 0.750100
vertex 0.430270 -0.022142 0.750100
endloop
endfacet
facet normal 0.000000 0.000000 1.000000
outer loop
vertex 0.430270 -0.022142 0.750100
vertex 0.429340 -0.021860 0.750100
vertex 0.428372 -0.021764 0.750100
endloop
endfacet
facet normal 0.000000 0.000000 1.000000
outer loop
vertex 0.428372 -0.021764 0.750100
vertex 0.427404 -0.021860 0.750100
vertex 0.426473 -0.022142 0.750100
endloop
endfacet
facet normal 0.000315 0.000000 1.000000
outer loop
vertex 0.426473 -0.022142 0.750100
vertex 0.425615 -0.022601 0.750100
vertex 0.424864 -0.023218 0.750100
endloop
endfacet
facet normal 0.000000 0.000000 1.000000
outer loop
vertex 0.424864 -0.023218 0.750100
vertex 0.424247 -0.023969 0.750100
vertex 0.423788 -0.024827 0.750100
endloop
endfacet
facet normal 0.000000 0.000000 1.000000
outer loop
vertex 0.423788 -0.024827 0.750100
vertex 0.423506 -0.025758 0.750100
vertex 0.423411 -0.026726 0.750100
endloop
endfacet
facet normal 0.000000 0.000000 1.000000
outer loop
vertex 0.423411 -0.026726 0.750100
vertex 0.423506 -0.027694 0.750100
vertex 0.423788 -0.028624 0.750100
endloop
endfacet
facet normal 0.000000 0.000000 1.000000
outer loop
vertex 0.423788 -0.028624 0.750100
vertex 0.424247 -0.029482 0.750100
vertex 0.424864 -0.030234 0.750100
endloop
endfacet
facet normal 0.000315 0.000000 1.000000
outer loop
vertex 0.424864 -0.030234 0.750100
vertex 0.425615 -0.030851 0.750100
vertex 0.426473 -0.031309 0.750100
endloop
endfacet
facet normal 0.000000 0.000000 1.000000
outer loop
vertex 0.426473 -0.031309 0.750100
vertex 0.428372 -0.031687 0.750100
vertex 0.430270 -0.031309 0.750100
endloop
endfacet
facet normal 0.000000 0.000000 1.000000
outer loop
vertex 0.430270 -0.031309 0.750100
vertex 0.431880 -0.030234 0.750100
vertex 0.432955 -0.028624 0.750100
endloop
endfacet
facet normal 0.000000 0.000000 1.000000
outer loop
vertex 0.432955 -0.028624 0.750100
vertex 0.433333 -0.026726 0.750100
vertex 0.432955 -0.024827 0.750100
endloop
endfacet
facet normal -0.000081 0.000000 1.000000
outer loop
vertex 0.432955 -0.024827 0.750100
vertex 0.431880 -0.023218 0.750100
vertex 0.430270 -0.022142 0.750100
endloop
endfacet
facet normal 0.000000 0.000000 1.000000
outer loop
vertex 0.430270 -0.022142 0.750100
vertex 0.428372 -0.021764 0.750100
vertex 0.426473 -0.022142 0.750100
endloop
endfacet
facet normal 0.000000 0.000000 1.000000
outer loop
vertex 0.426473 -0.022142 0.750100
vertex 0.424864 -0.023218 0.750100
vertex 0.423788 -0.024827 0.750100
endloop
endfacet
facet normal 0.000000 0.000000 1.000000
outer loop
vertex 0.423788 -0.024827 0.750100
vertex 0.423411 -0.026726 0.750100
vertex 0.423788 -0.028624 0.750100
endloop
endfacet
facet normal 0.000081 0.000000 1.000000
outer loop
vertex 0.423788 -0.028624 0.750100
vertex 0.424864 -0.030234 0.750100
vertex 0.426473 -0.031309 0.750100
endloop
endfacet
facet normal 0.000000 0.000000 1.000000
outer loop
vertex 0.426473 -0.031309 0.750100
vertex 0.430270 -0.031309 0.750100
vertex 0.432955 -0.028624 0.750100
endloop
endfacet
facet normal 0.000000 0.000000 1.000000
outer loop
vertex 0.432955 -0.028624 0.750100
vertex 0.432955 -0.024827 0.750100
vertex 0.430270 -0.022142 0.750100
endloop
endfacet
facet normal 0.000000 0.000000 1.000000
outer loop
vertex 0.430270 -0.022142 0.750100
vertex 0.426473 -0.022142 0.750100
vertex 0.423788 -0.024827 0.750100
endloop
endfacet
facet normal 0.000000 0.000000 1.000000
outer loop
vertex 0.423788 -0.024827 0.750100
vertex 0.423788 -0.028624 0.750100
vertex 0.426473 -0.031309 0.750100
endloop
endfacet
facet normal 0.000019 0.000000 1.000000
outer loop
vertex 0.426473 -0.031309 0.750100
vertex 0.432955 -0.028624 0.750100
vertex 0.430270 -0.022142 0.750100
endloop
endfacet
facet normal 0.000000 0.000000 1.000000
outer loop
vertex 0.430270 -0.022142 0.750100
vertex 0.423788 -0.024827 0.750100
vertex 0.426473 -0.031309 0.750100
endloop
endfacet
facet normal -0.290297 0.956937 0.000000
outer loop
vertex 0.430270 -0.031309 0.789496
vertex 0.430270 -0.031309 0.750100
vertex 0.429340 -0.031592 0.750100
endloop
endfacet
facet normal -0.290296 0.956937 0.000000
outer loop
vertex 0.430270 -0.031309 0.789496
vertex 0.429340 -0.031592 0.750100
vertex 0.429340 -0.031592 0.789496
endloop
endfacet
facet normal -0.098013 0.995185 0.000000
outer loop
vertex 0.429340 -0.031592 0.789496
vertex 0.429340 -0.031592 0.750100
vertex 0.428372 -0.031687 0.750100
endloop
endfacet
facet normal -0.098013 0.995185 0.000000
outer loop
vertex 0.429340 -0.031592 0.789496
vertex 0.428372 -0.031687 0.750100
vertex 0.428372 -0.031687 0.789496
endloop
endfacet
facet normal 0.000000 0.000000 -1.000000
outer loop
vertex 0.429340 -0.031592 0.789496
vertex 0.428372 -0.031687 0.789496
vertex 0.427404 -0.031592 0.789496
endloop
endfacet
facet normal -0.000315 0.000000 -1.000000
outer loop
vertex 0.427404 -0.031592 0.789496
vertex 0.426473 -0.031309 0.789496
vertex 0.425615 -0.030851 0.789496
endloop
endfacet
facet normal 0.000000 0.000000 -1.000000
outer loop
vertex 0.425615 -0.030851 0.789496
vertex 0.424864 -0.030234 0.789496
vertex 0.424247 -0.029482 0.789496
endloop
endfacet
facet normal 0.000631 0.000000 -1.000000
outer loop
vertex 0.424247 -0.029482 0.789496
vertex 0.423788 -0.028624 0.789496
vertex 0.423506 -0.027694 0.789496
endloop
endfacet
facet normal -0.000631 0.000000 -1.000000
outer loop
vertex 0.423506 -0.027694 0.789496
vertex 0.423411 -0.026726 0.789496
vertex 0.423506 -0.025758 0.789496
endloop
endfacet
facet normal 0.000000 0.000000 -1.000000
outer loop
vertex 0.423506 -0.025758 0.789496
vertex 0.423788 -0.024827 0.789496
vertex 0.424247 -0.023969 0.789496
endloop
endfacet
facet normal 0.000000 0.000000 -1.000000
outer loop
vertex 0.424247 -0.023969 0.789496
vertex 0.424864 -0.023218 0.789496
vertex 0.425615 -0.022601 0.789496
endloop
endfacet
facet normal -0.000315 0.000000 -1.000000
outer loop
vertex 0.425615 -0.022601 0.789496
vertex 0.426473 -0.022142 0.789496
vertex 0.427404 -0.021860 0.789496
endloop
endfacet
facet normal 0.000000 0.000000 -1.000000
outer loop
vertex 0.427404 -0.021860 0.789496
vertex 0.428372 -0.021764 0.789496
vertex 0.429340 -0.021860 0.789496
endloop
endfacet
facet normal 0.000000 0.000000 -1.000000
outer loop
vertex 0.429340 -0.021860 0.789496
vertex 0.430270 -0.022142 0.789496
vertex 0.431128 -0.022601 0.789496
endloop
endfacet
facet normal -0.000631 0.000000 -1.000000
outer loop
vertex 0.431128 -0.022601 0.789496
vertex 0.431880 -0.023218 0.789496
vertex 0.432497 -0.023969 0.789496
endloop
endfacet
facet normal -0.000631 0.000000 -1.000000
outer loop
vertex 0.432497 -0.023969 0.789496
vertex 0.432955 -0.024827 0.789496
vertex 0.433238 -0.025758 0.789496
endloop
endfacet
facet normal 0.000631 0.000000 -1.000000
outer loop
vertex 0.433238 -0.025758 0.789496
vertex 0.433333 -0.026726 0.789496
vertex 0.433238 -0.027694 0.789496
endloop
endfacet
facet normal 0.000000 0.000000 -1.000000
outer loop
vertex 0.433238 -0.027694 0.789496
vertex 0.432955 -0.028624 0.789496
vertex 0.432497 -0.029482 0.789496
endloop
endfacet
facet normal 0.000631 0.000000 -1.000000
outer loop
vertex 0.432497 -0.029482 0.789496
vertex 0.431880 -0.030234 0.789496
vertex 0.431128 -0.030851 0.789496
endloop
endfacet
facet normal 0.000000 0.000000 -1.000000
outer loop
vertex 0.431128 -0.030851 0.789496
vertex 0.430270 -0.031309 0.789496
vertex 0.429340 -0.031592 0.789496
endloop
endfacet
facet normal 0.000000 0.000000 -1.000000
outer loop
vertex 0.429340 -0.031592 0.789496
vertex 0.427404 -0.031592 0.789496
vertex 0.425615 -0.030851 0.789496
endloop
endfacet
facet normal -0.000162 0.000000 -1.000000
outer loop
vertex 0.425615 -0.030851 0.789496
vertex 0.424247 -0.029482 0.789496
vertex 0.423506 -0.027694 0.789496
endloop
endfacet
facet normal 0.000000 0.000000 -1.000000
outer loop
vertex 0.423506 -0.027694 0.789496
vertex 0.423506 -0.025758 0.789496
vertex 0.424247 -0.023969 0.789496
endloop
endfacet
facet normal 0.000000 0.000000 -1.000000
outer loop
vertex 0.424247 -0.023969 0.789496
vertex 0.425615 -0.022601 0.789496
vertex 0.427404 -0.021860 0.789496
endloop
endfacet
facet normal 0.000000 0.000000 -1.000000
outer loop
vertex 0.427404 -0.021860 0.789496
vertex 0.429340 -0.021860 0.789496
vertex 0.431128 -0.022601 0.789496
endloop
endfacet
facet normal 0.000162 0.000000 -1.000000
outer loop
vertex 0.431128 -0.022601 0.789496
vertex 0.432497 -0.023969 0.789496
vertex 0.433238 -0.025758 0.789496
endloop
endfacet
facet normal 0.000000 0.000000 -1.000000
outer loop
vertex 0.433238 -0.025758 0.789496
vertex 0.433238 -0.027694 0.789496
vertex 0.432497 -0.029482 0.789496
endloop
endfacet
facet normal 0.000000 0.000000 -1.000000
outer loop
vertex 0.432497 -0.029482 0.789496
vertex 0.431128 -0.030851 0.789496
vertex 0.429340 -0.031592 0.789496
endloop
endfacet
facet normal 0.000046 0.000000 -1.000000
outer loop
vertex 0.429340 -0.031592 0.789496
vertex 0.425615 -0.030851 0.789496
vertex 0.423506 -0.027694 0.789496
endloop
endfacet
facet normal 0.000046 0.000000 -1.000000
outer loop
vertex 0.423506 -0.027694 0.789496
vertex 0.424247 -0.023969 0.789496
vertex 0.427404 -0.021860 0.789496
endloop
endfacet
facet normal 0.000000 0.000000 -1.000000
outer loop
vertex 0.427404 -0.021860 0.789496
vertex 0.431128 -0.022601 0.789496
vertex 0.433238 -0.025758 0.789496
endloop
endfacet
facet normal 0.000000 0.000000 -1.000000
outer loop
vertex 0.433238 -0.025758 0.789496
vertex 0.432497 -0.029482 0.789496
vertex 0.429340 -0.031592 0.789496
endloop
endfacet
facet normal 0.000000 0.000000 -1.000000
outer loop
vertex 0.429340 -0.031592 0.789496
vertex 0.423506 -0.027694 0.789496
vertex 0.427404 -0.021860 0.789496
endloop
endfacet
facet normal 0.000000 0.000000 -1.000000
outer loop
vertex 0.427404 -0.021860 0.789496
vertex 0.433238 -0.025758 0.789496
vertex 0.429340 -0.031592 0.789496
endloop
endfacet
facet normal 0.835334 0.549743 0.000000
outer loop
vertex 0.501894 -0.035834 0.746510
vertex 0.501894 -0.035834 0.745734
vertex 0.497286 -0.028832 0.745734
endloop
endfacet
facet normal 0.835282 0.549821 0.000000
outer loop
vertex 0.501894 -0.035834 0.746510
vertex 0.497286 -0.028832 0.745734
vertex 0.497286 -0.028832 0.746510
endloop
endfacet
facet normal -0.020623 0.601234 -0.798807
outer loop
vertex 0.422499 -0.019349 0.746510
vertex 0.422499 -0.020381 0.745734
vertex 0.413577 -0.020687 0.745734
endloop
endfacet
facet normal -0.148309 0.988941 0.000000
outer loop
vertex 0.422499 -0.019349 0.746510
vertex 0.413577 -0.020687 0.745734
vertex 0.413577 -0.020687 0.746510
endloop
endfacet
facet normal -1.000000 0.000000 0.000000
outer loop
vertex 0.413577 -0.020687 0.746510
vertex 0.413577 -0.020687 0.745734
vertex 0.413577 -0.035834 0.745734
endloop
endfacet
facet normal -1.000000 0.000000 0.000000
outer loop
vertex 0.413577 -0.020687 0.746510
vertex 0.413577 -0.035834 0.745734
vertex 0.413577 -0.035834 0.746510
endloop
endfacet
facet normal 0.000000 -1.000000 0.000000
outer loop
vertex 0.499582 -0.035834 0.746510
vertex 0.499582 -0.035834 0.745734
vertex 0.501894 -0.035834 0.745734
endloop
endfacet
facet normal 0.000000 -1.000000 0.000000
outer loop
vertex 0.499582 -0.035834 0.746510
vertex 0.501894 -0.035834 0.745734
vertex 0.501894 -0.035834 0.746510
endloop
endfacet
facet normal 0.000000 0.000000 1.000000
outer loop
vertex 0.422499 -0.020381 0.752261
vertex 0.413577 -0.020687 0.752261
vertex 0.413577 -0.035834 0.752261
endloop
endfacet
facet normal 0.000000 0.000000 1.000000
outer loop
vertex 0.422499 -0.020381 0.752261
vertex 0.413577 -0.035834 0.752261
vertex 0.422499 -0.035834 0.752261
endloop
endfacet
facet normal 0.000000 0.000000 -1.000000
outer loop
vertex 0.494973 -0.028588 0.745734
vertex 0.497286 -0.028832 0.745734
vertex 0.501894 -0.035834 0.745734
endloop
endfacet
facet normal 0.000000 0.000000 -1.000000
outer loop
vertex 0.494973 -0.028588 0.745734
vertex 0.501894 -0.035834 0.745734
vertex 0.499582 -0.035834 0.745734
endloop
endfacet
facet normal 0.000000 0.000000 -1.000000
outer loop
vertex 0.436566 -0.018763 0.745734
vertex 0.440825 -0.018273 0.745734
vertex 0.440825 -0.035834 0.745734
endloop
endfacet
facet normal 0.000000 0.000000 -1.000000
outer loop
vertex 0.436566 -0.018763 0.745734
vertex 0.440825 -0.035834 0.745734
vertex 0.436566 -0.035834 0.745734
endloop
endfacet
facet normal -0.853074 0.000000 0.521789
outer loop
vertex 0.445483 -0.018764 0.759876
vertex 0.440825 -0.018273 0.752261
vertex 0.440825 -0.035834 0.752261
endloop
endfacet
facet normal -0.853073 0.000000 0.521792
outer loop
vertex 0.445483 -0.018764 0.759876
vertex 0.440825 -0.035834 0.752261
vertex 0.445483 -0.035834 0.759876
endloop
endfacet
facet normal 0.000000 -1.000000 0.000000
outer loop
vertex 0.436566 -0.035834 0.746510
vertex 0.436566 -0.035834 0.745734
vertex 0.440825 -0.035834 0.745734
endloop
endfacet
facet normal 0.000000 -1.000000 0.000000
outer loop
vertex 0.436566 -0.035834 0.746510
vertex 0.440825 -0.035834 0.745734
vertex 0.440825 -0.035834 0.746510
endloop
endfacet
facet normal 0.104841 0.994489 0.000000
outer loop
vertex 0.445483 -0.018764 0.746510
vertex 0.445483 -0.018764 0.745734
vertex 0.440825 -0.018273 0.745734
endloop
endfacet
facet normal 0.104841 0.994489 0.000000
outer loop
vertex 0.445483 -0.018764 0.746510
vertex 0.440825 -0.018273 0.745734
vertex 0.440825 -0.018273 0.746510
endloop
endfacet
facet normal 0.104837 0.994489 0.000000
outer loop
vertex 0.497286 -0.028832 0.746510
vertex 0.497286 -0.028832 0.745734
vertex 0.494973 -0.028588 0.745734
endloop
endfacet
facet normal 0.104834 0.994490 0.000000
outer loop
vertex 0.497286 -0.028832 0.746510
vertex 0.494973 -0.028588 0.745734
vertex 0.494973 -0.028588 0.746510
endloop
endfacet
facet normal 0.000000 0.000000 1.000000
outer loop
vertex 0.497286 -0.028832 0.759876
vertex 0.494973 -0.028588 0.759876
vertex 0.499582 -0.035834 0.759876
endloop
endfacet
facet normal 0.000000 0.000000 1.000000
outer loop
vertex 0.497286 -0.028832 0.759876
vertex 0.499582 -0.035834 0.759876
vertex 0.501894 -0.035834 0.759876
endloop
endfacet
facet normal 0.000000 0.000000 -1.000000
outer loop
vertex 0.450816 -0.024615 0.745734
vertex 0.494973 -0.028588 0.745734
vertex 0.499582 -0.035834 0.745734
endloop
endfacet
facet normal 0.000000 0.000000 -1.000000
outer loop
vertex 0.450816 -0.024615 0.745734
vertex 0.499582 -0.035834 0.745734
vertex 0.450816 -0.035834 0.745734
endloop
endfacet
facet normal 0.000000 -1.000000 0.000000
outer loop
vertex 0.450816 -0.035834 0.746510
vertex 0.450816 -0.035834 0.745734
vertex 0.499582 -0.035834 0.745734
endloop
endfacet
facet normal 0.000000 -1.000000 0.000000
outer loop
vertex 0.450816 -0.035834 0.746510
vertex 0.499582 -0.035834 0.745734
vertex 0.499582 -0.035834 0.746510
endloop
endfacet
facet normal 0.000000 -1.000000 0.000000
outer loop
vertex 0.413577 -0.035834 0.746510
vertex 0.413577 -0.035834 0.745734
vertex 0.422499 -0.035834 0.745734
endloop
endfacet
facet normal 0.000000 -1.000000 0.000000
outer loop
vertex 0.413577 -0.035834 0.746510
vertex 0.422499 -0.035834 0.745734
vertex 0.422499 -0.035834 0.746510
endloop
endfacet
facet normal 0.000000 0.000000 -1.000000
outer loop
vertex 0.413577 -0.020687 0.745734
vertex 0.422499 -0.020381 0.745734
vertex 0.422499 -0.035834 0.745734
endloop
endfacet
facet normal 0.000000 0.000000 -1.000000
outer loop
vertex 0.413577 -0.020687 0.745734
vertex 0.422499 -0.035834 0.745734
vertex 0.413577 -0.035834 0.745734
endloop
endfacet
facet normal 0.000000 0.000000 1.000000
outer loop
vertex 0.436566 -0.018763 0.752261
vertex 0.422499 -0.020381 0.752261
vertex 0.422499 -0.035834 0.752261
endloop
endfacet
facet normal 0.000000 0.000000 1.000000
outer loop
vertex 0.436566 -0.018763 0.752261
vertex 0.422499 -0.035834 0.752261
vertex 0.436566 -0.035834 0.752261
endloop
endfacet
facet normal -0.109228 0.949767 -0.293279
outer loop
vertex 0.436566 -0.018523 0.746510
vertex 0.436566 -0.018763 0.745734
vertex 0.422499 -0.020381 0.745734
endloop
endfacet
facet normal -0.035269 0.600986 -0.798481
outer loop
vertex 0.436566 -0.018523 0.746510
vertex 0.422499 -0.020381 0.745734
vertex 0.422499 -0.019349 0.746510
endloop
endfacet
facet normal -0.056905 0.969743 0.237404
outer loop
vertex 0.436566 -0.018763 0.752261
vertex 0.436566 -0.018523 0.751281
vertex 0.422499 -0.019349 0.751281
endloop
endfacet
facet normal -0.078935 0.686364 0.722962
outer loop
vertex 0.436566 -0.018763 0.752261
vertex 0.422499 -0.019349 0.751281
vertex 0.422499 -0.020381 0.752261
endloop
endfacet
facet normal 0.000000 -1.000000 0.000000
outer loop
vertex 0.413577 -0.035834 0.752261
vertex 0.413577 -0.035834 0.751281
vertex 0.422499 -0.035834 0.751281
endloop
endfacet
facet normal 0.000000 -1.000000 0.000000
outer loop
vertex 0.413577 -0.035834 0.752261
vertex 0.422499 -0.035834 0.751281
vertex 0.422499 -0.035834 0.752261
endloop
endfacet
facet normal 0.000000 -1.000000 0.000000
outer loop
vertex 0.450816 -0.035834 0.759876
vertex 0.450816 -0.035834 0.758896
vertex 0.499582 -0.035834 0.758896
endloop
endfacet
facet normal 0.000000 -1.000000 0.000000
outer loop
vertex 0.450816 -0.035834 0.759876
vertex 0.499582 -0.035834 0.758896
vertex 0.499582 -0.035834 0.759876
endloop
endfacet
facet normal 0.104845 0.994489 0.000000
outer loop
vertex 0.497286 -0.028832 0.759876
vertex 0.497286 -0.028832 0.758896
vertex 0.494973 -0.028588 0.758896
endloop
endfacet
facet normal 0.104830 0.994490 0.000000
outer loop
vertex 0.497286 -0.028832 0.759876
vertex 0.494973 -0.028588 0.758896
vertex 0.494973 -0.028588 0.759876
endloop
endfacet
facet normal 0.104852 0.994488 0.000000
outer loop
vertex 0.445483 -0.018764 0.759876
vertex 0.445483 -0.018764 0.758896
vertex 0.440825 -0.018273 0.751281
endloop
endfacet
facet normal 0.104827 0.994491 0.000000
outer loop
vertex 0.445483 -0.018764 0.759876
vertex 0.440825 -0.018273 0.751281
vertex 0.440825 -0.018273 0.752261
endloop
endfacet
facet normal 0.000000 -1.000000 0.000000
outer loop
vertex 0.436566 -0.035834 0.752261
vertex 0.436566 -0.035834 0.751281
vertex 0.440825 -0.035834 0.751281
endloop
endfacet
facet normal 0.000000 -1.000000 0.000000
outer loop
vertex 0.436566 -0.035834 0.752261
vertex 0.440825 -0.035834 0.751281
vertex 0.440825 -0.035834 0.752261
endloop
endfacet
facet normal 0.000000 -1.000000 0.000000
outer loop
vertex 0.499582 -0.035834 0.759876
vertex 0.499582 -0.035834 0.758896
vertex 0.501894 -0.035834 0.758896
endloop
endfacet
facet normal 0.000000 -1.000000 0.000000
outer loop
vertex 0.499582 -0.035834 0.759876
vertex 0.501894 -0.035834 0.758896
vertex 0.501894 -0.035834 0.759876
endloop
endfacet
facet normal -1.000000 0.000000 0.000000
outer loop
vertex 0.413577 -0.020687 0.752261
vertex 0.413577 -0.020687 0.751281
vertex 0.413577 -0.035834 0.751281
endloop
endfacet
facet normal -1.000000 0.000000 0.000000
outer loop
vertex 0.413577 -0.020687 0.752261
vertex 0.413577 -0.035834 0.751281
vertex 0.413577 -0.035834 0.752261
endloop
endfacet
facet normal -0.102714 0.684870 0.721390
outer loop
vertex 0.422499 -0.020381 0.752261
vertex 0.422499 -0.019349 0.751281
vertex 0.413577 -0.020687 0.751281
endloop
endfacet
facet normal -0.034288 0.999412 0.000000
outer loop
vertex 0.422499 -0.020381 0.752261
vertex 0.413577 -0.020687 0.751281
vertex 0.413577 -0.020687 0.752261
endloop
endfacet
facet normal 0.835281 0.549823 0.000000
outer loop
vertex 0.501894 -0.035834 0.759876
vertex 0.501894 -0.035834 0.758896
vertex 0.497286 -0.028832 0.758896
endloop
endfacet
facet normal 0.835319 0.549766 0.000000
outer loop
vertex 0.501894 -0.035834 0.759876
vertex 0.497286 -0.028832 0.758896
vertex 0.497286 -0.028832 0.759876
endloop
endfacet
facet normal -0.058582 0.998283 0.000000
outer loop
vertex 0.436566 -0.018523 0.751281
vertex 0.436566 -0.018523 0.746510
vertex 0.422499 -0.019349 0.746510
endloop
endfacet
facet normal -0.058582 0.998283 0.000000
outer loop
vertex 0.436566 -0.018523 0.751281
vertex 0.422499 -0.019349 0.746510
vertex 0.422499 -0.019349 0.751281
endloop
endfacet
facet normal 0.000000 -1.000000 0.000000
outer loop
vertex 0.413577 -0.035834 0.751281
vertex 0.413577 -0.035834 0.746510
vertex 0.422499 -0.035834 0.746510
endloop
endfacet
facet normal 0.000000 -1.000000 0.000000
outer loop
vertex 0.413577 -0.035834 0.751281
vertex 0.422499 -0.035834 0.746510
vertex 0.422499 -0.035834 0.751281
endloop
endfacet
facet normal 0.000000 -1.000000 0.000000
outer loop
vertex 0.450816 -0.035834 0.758896
vertex 0.450816 -0.035834 0.746510
vertex 0.499582 -0.035834 0.746510
endloop
endfacet
facet normal 0.000000 -1.000000 0.000000
outer loop
vertex 0.450816 -0.035834 0.758896
vertex 0.499582 -0.035834 0.746510
vertex 0.499582 -0.035834 0.758896
endloop
endfacet
facet normal 0.104841 0.994489 0.000000
outer loop
vertex 0.497286 -0.028832 0.758896
vertex 0.497286 -0.028832 0.746510
vertex 0.494973 -0.028588 0.746510
endloop
endfacet
facet normal 0.104834 0.994490 0.000000
outer loop
vertex 0.497286 -0.028832 0.758896
vertex 0.494973 -0.028588 0.746510
vertex 0.494973 -0.028588 0.758896
endloop
endfacet
facet normal 0.104836 0.994489 0.000000
outer loop
vertex 0.445483 -0.018764 0.758896
vertex 0.445483 -0.018764 0.746510
vertex 0.440825 -0.018273 0.746510
endloop
endfacet
facet normal 0.104834 0.994490 0.000000
outer loop
vertex 0.445483 -0.018764 0.758896
vertex 0.440825 -0.018273 0.746510
vertex 0.440825 -0.018273 0.751281
endloop
endfacet
facet normal 0.000000 -1.000000 0.000000
outer loop
vertex 0.436566 -0.035834 0.751281
vertex 0.436566 -0.035834 0.746510
vertex 0.440825 -0.035834 0.746510
endloop
endfacet
facet normal 0.000000 -1.000000 0.000000
outer loop
vertex 0.436566 -0.035834 0.751281
vertex 0.440825 -0.035834 0.746510
vertex 0.440825 -0.035834 0.751281
endloop
endfacet
facet normal 0.000000 -1.000000 0.000000
outer loop
vertex 0.499582 -0.035834 0.758896
vertex 0.499582 -0.035834 0.746510
vertex 0.501894 -0.035834 0.746510
endloop
endfacet
facet normal 0.000000 -1.000000 0.000000
outer loop
vertex 0.499582 -0.035834 0.758896
vertex 0.501894 -0.035834 0.746510
vertex 0.501894 -0.035834 0.758896
endloop
endfacet
facet normal -1.000000 0.000000 0.000000
outer loop
vertex 0.413577 -0.020687 0.751281
vertex 0.413577 -0.020687 0.746510
vertex 0.413577 -0.035834 0.746510
endloop
endfacet
facet normal -1.000000 0.000000 0.000000
outer loop
vertex 0.413577 -0.020687 0.751281
vertex 0.413577 -0.035834 0.746510
vertex 0.413577 -0.035834 0.751281
endloop
endfacet
facet normal -0.148320 0.988939 0.000000
outer loop
vertex 0.422499 -0.019349 0.751281
vertex 0.422499 -0.019349 0.746510
vertex 0.413577 -0.020687 0.746510
endloop
endfacet
facet normal -0.148317 0.988940 0.000000
outer loop
vertex 0.422499 -0.019349 0.751281
vertex 0.413577 -0.020687 0.746510
vertex 0.413577 -0.020687 0.751281
endloop
endfacet
facet normal 0.835314 0.549774 0.000000
outer loop
vertex 0.501894 -0.035834 0.758896
vertex 0.501894 -0.035834 0.746510
vertex 0.497286 -0.028832 0.746510
endloop
endfacet
facet normal 0.835309 0.549780 0.000000
outer loop
vertex 0.501894 -0.035834 0.758896
vertex 0.497286 -0.028832 0.746510
vertex 0.497286 -0.028832 0.758896
endloop
endfacet
facet normal 0.843577 0.537009 0.000000
outer loop
vertex 0.446336 -0.020104 0.758896
vertex 0.446336 -0.020104 0.746510
vertex 0.445483 -0.018764 0.746510
endloop
endfacet
facet normal 0.843559 0.537037 0.000000
outer loop
vertex 0.446336 -0.020104 0.758896
vertex 0.445483 -0.018764 0.746510
vertex 0.445483 -0.018764 0.758896
endloop
endfacet
facet normal 0.000000 -1.000000 0.000000
outer loop
vertex 0.440825 -0.035834 0.751281
vertex 0.440825 -0.035834 0.746510
vertex 0.445483 -0.035834 0.746510
endloop
endfacet
facet normal 0.000000 -1.000000 0.000000
outer loop
vertex 0.440825 -0.035834 0.751281
vertex 0.445483 -0.035834 0.746510
vertex 0.445483 -0.035834 0.758896
endloop
endfacet
facet normal 0.843564 0.537028 0.000000
outer loop
vertex 0.446336 -0.020104 0.759876
vertex 0.446336 -0.020104 0.758896
vertex 0.445483 -0.018764 0.758896
endloop
endfacet
facet normal 0.843564 0.537028 0.000000
outer loop
vertex 0.446336 -0.020104 0.759876
vertex 0.445483 -0.018764 0.758896
vertex 0.445483 -0.018764 0.759876
endloop
endfacet
facet normal 0.000000 -1.000000 0.000000
outer loop
vertex 0.440825 -0.035834 0.752261
vertex 0.440825 -0.035834 0.751281
vertex 0.445483 -0.035834 0.758896
endloop
endfacet
facet normal 0.000000 -1.000000 0.000000
outer loop
vertex 0.440825 -0.035834 0.752261
vertex 0.445483 -0.035834 0.758896
vertex 0.445483 -0.035834 0.759876
endloop
endfacet
facet normal 0.000000 -1.000000 0.000000
outer loop
vertex 0.440825 -0.035834 0.746510
vertex 0.440825 -0.035834 0.745734
vertex 0.445483 -0.035834 0.745734
endloop
endfacet
facet normal 0.000000 -1.000000 0.000000
outer loop
vertex 0.440825 -0.035834 0.746510
vertex 0.445483 -0.035834 0.745734
vertex 0.445483 -0.035834 0.746510
endloop
endfacet
facet normal 0.000000 0.000000 -1.000000
outer loop
vertex 0.440825 -0.018273 0.745734
vertex 0.445483 -0.018764 0.745734
vertex 0.445483 -0.035834 0.745734
endloop
endfacet
facet normal 0.000000 0.000000 -1.000000
outer loop
vertex 0.440825 -0.018273 0.745734
vertex 0.445483 -0.035834 0.745734
vertex 0.440825 -0.035834 0.745734
endloop
endfacet
facet normal 0.843580 0.537004 0.000000
outer loop
vertex 0.446336 -0.020104 0.746510
vertex 0.446336 -0.020104 0.745734
vertex 0.445483 -0.018764 0.745734
endloop
endfacet
facet normal 0.843580 0.537004 0.000000
outer loop
vertex 0.446336 -0.020104 0.746510
vertex 0.445483 -0.018764 0.745734
vertex 0.445483 -0.018764 0.746510
endloop
endfacet
facet normal 0.000000 0.000000 1.000000
outer loop
vertex 0.446336 -0.020104 0.759876
vertex 0.445483 -0.018764 0.759876
vertex 0.445483 -0.035834 0.759876
endloop
endfacet
facet normal 0.000000 0.000000 1.000000
outer loop
vertex 0.446336 -0.020104 0.759876
vertex 0.445483 -0.035834 0.759876
vertex 0.446336 -0.035834 0.759876
endloop
endfacet
facet normal 0.000000 -1.000000 0.000000
outer loop
vertex 0.422499 -0.035834 0.751281
vertex 0.422499 -0.035834 0.746510
vertex 0.436566 -0.035834 0.746510
endloop
endfacet
facet normal 0.000000 -1.000000 0.000000
outer loop
vertex 0.422499 -0.035834 0.751281
vertex 0.436566 -0.035834 0.746510
vertex 0.436566 -0.035834 0.751281
endloop
endfacet
facet normal -0.058582 0.998283 0.000000
outer loop
vertex 0.440825 -0.018273 0.751281
vertex 0.440825 -0.018273 0.746510
vertex 0.436566 -0.018523 0.746510
endloop
endfacet
facet normal -0.058581 0.998283 0.000000
outer loop
vertex 0.440825 -0.018273 0.751281
vertex 0.436566 -0.018523 0.746510
vertex 0.436566 -0.018523 0.751281
endloop
endfacet
facet normal 0.000000 -1.000000 0.000000
outer loop
vertex 0.422499 -0.035834 0.752261
vertex 0.422499 -0.035834 0.751281
vertex 0.436566 -0.035834 0.751281
endloop
endfacet
facet normal 0.000000 -1.000000 0.000000
outer loop
vertex 0.422499 -0.035834 0.752261
vertex 0.436566 -0.035834 0.751281
vertex 0.436566 -0.035834 0.752261
endloop
endfacet
facet normal -0.058580 0.998283 0.000000
outer loop
vertex 0.440825 -0.018273 0.752261
vertex 0.440825 -0.018273 0.751281
vertex 0.436566 -0.018523 0.751281
endloop
endfacet
facet normal -0.111017 0.965313 0.236319
outer loop
vertex 0.440825 -0.018273 0.752261
vertex 0.436566 -0.018523 0.751281
vertex 0.436566 -0.018763 0.752261
endloop
endfacet
facet normal -0.114243 0.993453 0.000000
outer loop
vertex 0.440825 -0.018273 0.746510
vertex 0.440825 -0.018273 0.745734
vertex 0.436566 -0.018763 0.745734
endloop
endfacet
facet normal -0.055984 0.953985 -0.294581
outer loop
vertex 0.440825 -0.018273 0.746510
vertex 0.436566 -0.018763 0.745734
vertex 0.436566 -0.018523 0.746510
endloop
endfacet
facet normal 0.000000 0.000000 1.000000
outer loop
vertex 0.440825 -0.018273 0.752261
vertex 0.436566 -0.018763 0.752261
vertex 0.436566 -0.035834 0.752261
endloop
endfacet
facet normal 0.000000 0.000000 1.000000
outer loop
vertex 0.440825 -0.018273 0.752261
vertex 0.436566 -0.035834 0.752261
vertex 0.440825 -0.035834 0.752261
endloop
endfacet
facet normal 0.000000 -1.000000 0.000000
outer loop
vertex 0.422499 -0.035834 0.746510
vertex 0.422499 -0.035834 0.745734
vertex 0.436566 -0.035834 0.745734
endloop
endfacet
facet normal 0.000000 -1.000000 0.000000
outer loop
vertex 0.422499 -0.035834 0.746510
vertex 0.436566 -0.035834 0.745734
vertex 0.436566 -0.035834 0.746510
endloop
endfacet
facet normal 0.000008 0.000000 -1.000000
outer loop
vertex 0.422499 -0.020381 0.745734
vertex 0.436566 -0.018763 0.745734
vertex 0.436566 -0.035834 0.745734
endloop
endfacet
facet normal 0.000000 0.000000 -1.000000
outer loop
vertex 0.422499 -0.020381 0.745734
vertex 0.436566 -0.035834 0.745734
vertex 0.422499 -0.035834 0.745734
endloop
endfacet
facet normal 0.000000 0.000000 1.000000
outer loop
vertex 0.450816 -0.024615 0.759876
vertex 0.449211 -0.024620 0.759876
vertex 0.449211 -0.035834 0.759876
endloop
endfacet
facet normal 0.000000 0.000000 1.000000
outer loop
vertex 0.450816 -0.024615 0.759876
vertex 0.449211 -0.035834 0.759876
vertex 0.450816 -0.035834 0.759876
endloop
endfacet
facet normal -0.003043 0.999995 0.000000
outer loop
vertex 0.450816 -0.024615 0.746510
vertex 0.450816 -0.024615 0.745734
vertex 0.449211 -0.024620 0.745734
endloop
endfacet
facet normal -0.003043 0.999995 0.000000
outer loop
vertex 0.450816 -0.024615 0.746510
vertex 0.449211 -0.024620 0.745734
vertex 0.449211 -0.024620 0.746510
endloop
endfacet
facet normal -0.003043 0.999995 0.000000
outer loop
vertex 0.450816 -0.024615 0.759876
vertex 0.450816 -0.024615 0.758896
vertex 0.449211 -0.024620 0.758896
endloop
endfacet
facet normal -0.003043 0.999995 0.000000
outer loop
vertex 0.450816 -0.024615 0.759876
vertex 0.449211 -0.024620 0.758896
vertex 0.449211 -0.024620 0.759876
endloop
endfacet
facet normal -0.003043 0.999995 0.000000
outer loop
vertex 0.450816 -0.024615 0.758896
vertex 0.450816 -0.024615 0.746510
vertex 0.449211 -0.024620 0.746510
endloop
endfacet
facet normal -0.003043 0.999995 0.000000
outer loop
vertex 0.450816 -0.024615 0.758896
vertex 0.449211 -0.024620 0.746510
vertex 0.449211 -0.024620 0.758896
endloop
endfacet
facet normal 0.000000 -1.000000 0.000000
outer loop
vertex 0.446336 -0.035834 0.758896
vertex 0.446336 -0.035834 0.746510
vertex 0.449211 -0.035834 0.746510
endloop
endfacet
facet normal 0.000000 -1.000000 0.000000
outer loop
vertex 0.446336 -0.035834 0.758896
vertex 0.449211 -0.035834 0.746510
vertex 0.449211 -0.035834 0.758896
endloop
endfacet
facet normal 0.000000 -1.000000 0.000000
outer loop
vertex 0.446336 -0.035834 0.759876
vertex 0.446336 -0.035834 0.758896
vertex 0.449211 -0.035834 0.758896
endloop
endfacet
facet normal 0.000000 -1.000000 0.000000
outer loop
vertex 0.446336 -0.035834 0.759876
vertex 0.449211 -0.035834 0.758896
vertex 0.449211 -0.035834 0.759876
endloop
endfacet
facet normal 0.000000 -1.000000 0.000000
outer loop
vertex 0.446336 -0.035834 0.746510
vertex 0.446336 -0.035834 0.745734
vertex 0.449211 -0.035834 0.745734
endloop
endfacet
facet normal 0.000000 -1.000000 0.000000
outer loop
vertex 0.446336 -0.035834 0.746510
vertex 0.449211 -0.035834 0.745734
vertex 0.449211 -0.035834 0.746510
endloop
endfacet
facet normal 0.000000 0.000000 -1.000000
outer loop
vertex 0.446336 -0.020104 0.745734
vertex 0.449211 -0.024620 0.745734
vertex 0.449211 -0.035834 0.745734
endloop
endfacet
facet normal 0.000000 0.000000 -1.000000
outer loop
vertex 0.446336 -0.020104 0.745734
vertex 0.449211 -0.035834 0.745734
vertex 0.446336 -0.035834 0.745734
endloop
endfacet
facet normal 0.089607 0.995977 0.000000
outer loop
vertex 0.494973 -0.028588 0.758896
vertex 0.494973 -0.028588 0.746510
vertex 0.450816 -0.024615 0.746510
endloop
endfacet
facet normal 0.089607 0.995977 0.000000
outer loop
vertex 0.494973 -0.028588 0.758896
vertex 0.450816 -0.024615 0.746510
vertex 0.450816 -0.024615 0.758896
endloop
endfacet
facet normal 0.089608 0.995977 0.000000
outer loop
vertex 0.494973 -0.028588 0.759876
vertex 0.494973 -0.028588 0.758896
vertex 0.450816 -0.024615 0.758896
endloop
endfacet
facet normal 0.089608 0.995977 0.000000
outer loop
vertex 0.494973 -0.028588 0.759876
vertex 0.450816 -0.024615 0.758896
vertex 0.450816 -0.024615 0.759876
endloop
endfacet
facet normal 0.089608 0.995977 0.000000
outer loop
vertex 0.494973 -0.028588 0.746510
vertex 0.494973 -0.028588 0.745734
vertex 0.450816 -0.024615 0.745734
endloop
endfacet
facet normal 0.089608 0.995977 0.000000
outer loop
vertex 0.494973 -0.028588 0.746510
vertex 0.450816 -0.024615 0.745734
vertex 0.450816 -0.024615 0.746510
endloop
endfacet
facet normal 0.000000 0.000000 1.000000
outer loop
vertex 0.494973 -0.028588 0.759876
vertex 0.450816 -0.024615 0.759876
vertex 0.450816 -0.035834 0.759876
endloop
endfacet
facet normal 0.000000 0.000000 1.000000
outer loop
vertex 0.494973 -0.028588 0.759876
vertex 0.450816 -0.035834 0.759876
vertex 0.499582 -0.035834 0.759876
endloop
endfacet
facet normal 0.000000 -1.000000 0.000000
outer loop
vertex 0.449211 -0.035834 0.758896
vertex 0.449211 -0.035834 0.746510
vertex 0.450816 -0.035834 0.746510
endloop
endfacet
facet normal 0.000000 -1.000000 0.000000
outer loop
vertex 0.449211 -0.035834 0.758896
vertex 0.450816 -0.035834 0.746510
vertex 0.450816 -0.035834 0.758896
endloop
endfacet
facet normal 0.000000 -1.000000 0.000000
outer loop
vertex 0.449211 -0.035834 0.759876
vertex 0.449211 -0.035834 0.758896
vertex 0.450816 -0.035834 0.758896
endloop
endfacet
facet normal 0.000000 -1.000000 0.000000
outer loop
vertex 0.449211 -0.035834 0.759876
vertex 0.450816 -0.035834 0.758896
vertex 0.450816 -0.035834 0.759876
endloop
endfacet
facet normal 0.000000 -1.000000 0.000000
outer loop
vertex 0.449211 -0.035834 0.746510
vertex 0.449211 -0.035834 0.745734
vertex 0.450816 -0.035834 0.745734
endloop
endfacet
facet normal 0.000000 -1.000000 0.000000
outer loop
vertex 0.449211 -0.035834 0.746510
vertex 0.450816 -0.035834 0.745734
vertex 0.450816 -0.035834 0.746510
endloop
endfacet
facet normal 0.000000 0.000000 -1.000000
outer loop
vertex 0.449211 -0.024620 0.745734
vertex 0.450816 -0.024615 0.745734
vertex 0.450816 -0.035834 0.745734
endloop
endfacet
facet normal 0.000000 0.000000 -1.000000
outer loop
vertex 0.449211 -0.024620 0.745734
vertex 0.450816 -0.035834 0.745734
vertex 0.449211 -0.035834 0.745734
endloop
endfacet
facet normal 0.000000 0.000000 -1.000000
outer loop
vertex 0.445483 -0.018764 0.745734
vertex 0.446336 -0.020104 0.745734
vertex 0.446336 -0.035834 0.745734
endloop
endfacet
facet normal 0.000000 0.000000 -1.000000
outer loop
vertex 0.445483 -0.018764 0.745734
vertex 0.446336 -0.035834 0.745734
vertex 0.445483 -0.035834 0.745734
endloop
endfacet
facet normal 0.000000 -1.000000 0.000000
outer loop
vertex 0.445483 -0.035834 0.746510
vertex 0.445483 -0.035834 0.745734
vertex 0.446336 -0.035834 0.745734
endloop
endfacet
facet normal 0.000000 -1.000000 0.000000
outer loop
vertex 0.445483 -0.035834 0.746510
vertex 0.446336 -0.035834 0.745734
vertex 0.446336 -0.035834 0.746510
endloop
endfacet
facet normal 0.000000 -1.000000 0.000000
outer loop
vertex 0.445483 -0.035834 0.759876
vertex 0.445483 -0.035834 0.758896
vertex 0.446336 -0.035834 0.758896
endloop
endfacet
facet normal 0.000000 -1.000000 0.000000
outer loop
vertex 0.445483 -0.035834 0.759876
vertex 0.446336 -0.035834 0.758896
vertex 0.446336 -0.035834 0.759876
endloop
endfacet
facet normal 0.000000 -1.000000 0.000000
outer loop
vertex 0.445483 -0.035834 0.758896
vertex 0.445483 -0.035834 0.746510
vertex 0.446336 -0.035834 0.746510
endloop
endfacet
facet normal 0.000000 -1.000000 0.000000
outer loop
vertex 0.445483 -0.035834 0.758896
vertex 0.446336 -0.035834 0.746510
vertex 0.446336 -0.035834 0.758896
endloop
endfacet
facet normal 0.000000 0.000000 1.000000
outer loop
vertex 0.449211 -0.024620 0.759876
vertex 0.446336 -0.020104 0.759876
vertex 0.446336 -0.035834 0.759876
endloop
endfacet
facet normal 0.000000 0.000000 1.000000
outer loop
vertex 0.449211 -0.024620 0.759876
vertex 0.446336 -0.035834 0.759876
vertex 0.449211 -0.035834 0.759876
endloop
endfacet
facet normal 0.843566 0.537026 0.000000
outer loop
vertex 0.449211 -0.024620 0.746510
vertex 0.449211 -0.024620 0.745734
vertex 0.446336 -0.020104 0.745734
endloop
endfacet
facet normal 0.843534 0.537077 0.000000
outer loop
vertex 0.449211 -0.024620 0.746510
vertex 0.446336 -0.020104 0.745734
vertex 0.446336 -0.020104 0.746510
endloop
endfacet
facet normal 0.843566 0.537026 0.000000
outer loop
vertex 0.449211 -0.024620 0.759876
vertex 0.449211 -0.024620 0.758896
vertex 0.446336 -0.020104 0.758896
endloop
endfacet
facet normal 0.843566 0.537026 0.000000
outer loop
vertex 0.449211 -0.024620 0.759876
vertex 0.446336 -0.020104 0.758896
vertex 0.446336 -0.020104 0.759876
endloop
endfacet
facet normal 0.843559 0.537037 0.000000
outer loop
vertex 0.449211 -0.024620 0.758896
vertex 0.449211 -0.024620 0.746510
vertex 0.446336 -0.020104 0.746510
endloop
endfacet
facet normal 0.843559 0.537037 0.000000
outer loop
vertex 0.449211 -0.024620 0.758896
vertex 0.446336 -0.020104 0.746510
vertex 0.446336 -0.020104 0.758896
endloop
endfacet
facet normal 1.000000 0.000000 0.000000
outer loop
vertex 0.448051 -0.034309 0.757237
vertex 0.448051 -0.034309 0.757766
vertex 0.448051 -0.036669 0.757766
endloop
endfacet
facet normal 1.000000 0.000000 0.000000
outer loop
vertex 0.448051 -0.034309 0.757237
vertex 0.448051 -0.036669 0.757766
vertex 0.448051 -0.036669 0.757237
endloop
endfacet
facet normal 0.000000 1.000000 0.000000
outer loop
vertex 0.498531 -0.036669 0.757237
vertex 0.498531 -0.036669 0.757766
vertex 0.499020 -0.036669 0.757766
endloop
endfacet
facet normal 0.000000 1.000000 0.000000
outer loop
vertex 0.498531 -0.036669 0.757237
vertex 0.499020 -0.036669 0.757766
vertex 0.499020 -0.036669 0.757237
endloop
endfacet
facet normal -1.000000 0.000000 0.000000
outer loop
vertex 0.499020 -0.036669 0.757237
vertex 0.499020 -0.036669 0.757766
vertex 0.499020 -0.034309 0.757766
endloop
endfacet
facet normal -1.000000 0.000000 0.000000
outer loop
vertex 0.499020 -0.036669 0.757237
vertex 0.499020 -0.034309 0.757766
vertex 0.499020 -0.034309 0.757237
endloop
endfacet
facet normal 0.000000 -1.000000 0.000000
outer loop
vertex 0.448928 -0.034309 0.757237
vertex 0.448928 -0.034309 0.757766
vertex 0.448051 -0.034309 0.757766
endloop
endfacet
facet normal 0.000000 -1.000000 0.000000
outer loop
vertex 0.448928 -0.034309 0.757237
vertex 0.448051 -0.034309 0.757766
vertex 0.448051 -0.034309 0.757237
endloop
endfacet
facet normal 0.000000 0.000000 1.000000
outer loop
vertex 0.498531 -0.036669 0.747797
vertex 0.499020 -0.036669 0.747797
vertex 0.499020 -0.034309 0.747797
endloop
endfacet
facet normal 0.000000 0.000000 1.000000
outer loop
vertex 0.498531 -0.036669 0.747797
vertex 0.499020 -0.034309 0.747797
vertex 0.498531 -0.034309 0.747797
endloop
endfacet
facet normal 0.000000 0.000000 -1.000000
outer loop
vertex 0.448928 -0.036669 0.757766
vertex 0.448051 -0.036669 0.757766
vertex 0.448051 -0.034309 0.757766
endloop
endfacet
facet normal 0.000000 0.000000 -1.000000
outer loop
vertex 0.448928 -0.036669 0.757766
vertex 0.448051 -0.034309 0.757766
vertex 0.448928 -0.034309 0.757766
endloop
endfacet
facet normal 0.000000 0.000000 -1.000000
outer loop
vertex 0.498531 -0.036669 0.757766
vertex 0.448928 -0.036669 0.757766
vertex 0.448928 -0.034309 0.757766
endloop
endfacet
facet normal -0.000000 0.000000 -1.000000
outer loop
vertex 0.498531 -0.036669 0.757766
vertex 0.448928 -0.034309 0.757766
vertex 0.498531 -0.034309 0.757766
endloop
endfacet
facet normal 0.000000 0.000000 1.000000
outer loop
vertex 0.448051 -0.036669 0.747797
vertex 0.448928 -0.036669 0.747797
vertex 0.448928 -0.034309 0.747797
endloop
endfacet
facet normal 0.000000 0.000000 1.000000
outer loop
vertex 0.448051 -0.036669 0.747797
vertex 0.448928 -0.034309 0.747797
vertex 0.448051 -0.034309 0.747797
endloop
endfacet
facet normal 0.000000 -1.000000 0.000000
outer loop
vertex 0.498531 -0.034309 0.757237
vertex 0.498531 -0.034309 0.757766
vertex 0.448928 -0.034309 0.757766
endloop
endfacet
facet normal 0.000000 -1.000000 0.000000
outer loop
vertex 0.498531 -0.034309 0.757237
vertex 0.448928 -0.034309 0.757766
vertex 0.448928 -0.034309 0.757237
endloop
endfacet
facet normal 0.000000 1.000000 0.000000
outer loop
vertex 0.448051 -0.036669 0.757237
vertex 0.448051 -0.036669 0.757766
vertex 0.448928 -0.036669 0.757766
endloop
endfacet
facet normal 0.000000 1.000000 0.000000
outer loop
vertex 0.448051 -0.036669 0.757237
vertex 0.448928 -0.036669 0.757766
vertex 0.448928 -0.036669 0.757237
endloop
endfacet
facet normal 0.000000 -1.000000 0.000000
outer loop
vertex 0.499020 -0.034309 0.757237
vertex 0.499020 -0.034309 0.757766
vertex 0.498531 -0.034309 0.757766
endloop
endfacet
facet normal 0.000000 -1.000000 0.000000
outer loop
vertex 0.499020 -0.034309 0.757237
vertex 0.498531 -0.034309 0.757766
vertex 0.498531 -0.034309 0.757237
endloop
endfacet
facet normal 0.000000 0.000000 -1.000000
outer loop
vertex 0.499020 -0.036669 0.757766
vertex 0.498531 -0.036669 0.757766
vertex 0.498531 -0.034309 0.757766
endloop
endfacet
facet normal 0.000000 0.000000 -1.000000
outer loop
vertex 0.499020 -0.036669 0.757766
vertex 0.498531 -0.034309 0.757766
vertex 0.499020 -0.034309 0.757766
endloop
endfacet
facet normal -0.000002 0.000000 1.000000
outer loop
vertex 0.448928 -0.036669 0.747797
vertex 0.498531 -0.036669 0.747797
vertex 0.498531 -0.034309 0.747797
endloop
endfacet
facet normal 0.000002 0.000000 1.000000
outer loop
vertex 0.448928 -0.036669 0.747797
vertex 0.498531 -0.034309 0.747797
vertex 0.448928 -0.034309 0.747797
endloop
endfacet
facet normal -0.000000 1.000000 0.000000
outer loop
vertex 0.448928 -0.036669 0.757237
vertex 0.448928 -0.036669 0.757766
vertex 0.498531 -0.036669 0.757766
endloop
endfacet
facet normal -0.000000 1.000000 0.000000
outer loop
vertex 0.448928 -0.036669 0.757237
vertex 0.498531 -0.036669 0.757766
vertex 0.498531 -0.036669 0.757237
endloop
endfacet
facet normal -0.000000 1.000000 0.000000
outer loop
vertex 0.448928 -0.036669 0.748394
vertex 0.448928 -0.036669 0.757237
vertex 0.498531 -0.036669 0.757237
endloop
endfacet
facet normal -0.000000 1.000000 0.000000
outer loop
vertex 0.448928 -0.036669 0.748394
vertex 0.498531 -0.036669 0.757237
vertex 0.498531 -0.036669 0.748394
endloop
endfacet
facet normal 0.000000 -1.000000 0.000000
outer loop
vertex 0.499020 -0.034309 0.748394
vertex 0.499020 -0.034309 0.757237
vertex 0.498531 -0.034309 0.757237
endloop
endfacet
facet normal 0.000000 -1.000000 0.000000
outer loop
vertex 0.499020 -0.034309 0.748394
vertex 0.498531 -0.034309 0.757237
vertex 0.498531 -0.034309 0.748394
endloop
endfacet
facet normal 0.000000 1.000000 0.000000
outer loop
vertex 0.448051 -0.036669 0.748394
vertex 0.448051 -0.036669 0.757237
vertex 0.448928 -0.036669 0.757237
endloop
endfacet
facet normal 0.000000 1.000000 0.000000
outer loop
vertex 0.448051 -0.036669 0.748394
vertex 0.448928 -0.036669 0.757237
vertex 0.448928 -0.036669 0.748394
endloop
endfacet
facet normal 0.000000 -1.000000 0.000000
outer loop
vertex 0.498531 -0.034309 0.748394
vertex 0.498531 -0.034309 0.757237
vertex 0.448928 -0.034309 0.757237
endloop
endfacet
facet normal 0.000000 -1.000000 0.000000
outer loop
vertex 0.498531 -0.034309 0.748394
vertex 0.448928 -0.034309 0.757237
vertex 0.448928 -0.034309 0.748394
endloop
endfacet
facet normal 0.000000 -1.000000 0.000000
outer loop
vertex 0.448928 -0.034309 0.748394
vertex 0.448928 -0.034309 0.757237
vertex 0.448051 -0.034309 0.757237
endloop
endfacet
facet normal 0.000000 -1.000000 0.000000
outer loop
vertex 0.448928 -0.034309 0.748394
vertex 0.448051 -0.034309 0.757237
vertex 0.448051 -0.034309 0.748394
endloop
endfacet
facet normal -1.000000 0.000000 0.000000
outer loop
vertex 0.499020 -0.036669 0.748394
vertex 0.499020 -0.036669 0.757237
vertex 0.499020 -0.034309 0.757237
endloop
endfacet
facet normal -1.000000 0.000000 0.000000
outer loop
vertex 0.499020 -0.036669 0.748394
vertex 0.499020 -0.034309 0.757237
vertex 0.499020 -0.034309 0.748394
endloop
endfacet
facet normal 0.000000 1.000000 0.000000
outer loop
vertex 0.498531 -0.036669 0.748394
vertex 0.498531 -0.036669 0.757237
vertex 0.499020 -0.036669 0.757237
endloop
endfacet
facet normal 0.000000 1.000000 0.000000
outer loop
vertex 0.498531 -0.036669 0.748394
vertex 0.499020 -0.036669 0.757237
vertex 0.499020 -0.036669 0.748394
endloop
endfacet
facet normal 1.000000 0.000000 0.000000
outer loop
vertex 0.448051 -0.034309 0.748394
vertex 0.448051 -0.034309 0.757237
vertex 0.448051 -0.036669 0.757237
endloop
endfacet
facet normal 1.000000 0.000000 0.000000
outer loop
vertex 0.448051 -0.034309 0.748394
vertex 0.448051 -0.036669 0.757237
vertex 0.448051 -0.036669 0.748394
endloop
endfacet
facet normal 1.000000 0.000000 0.000000
outer loop
vertex 0.448051 -0.034309 0.747797
vertex 0.448051 -0.034309 0.748394
vertex 0.448051 -0.036669 0.748394
endloop
endfacet
facet normal 1.000000 0.000000 0.000000
outer loop
vertex 0.448051 -0.034309 0.747797
vertex 0.448051 -0.036669 0.748394
vertex 0.448051 -0.036669 0.747797
endloop
endfacet
facet normal 0.000000 1.000000 0.000000
outer loop
vertex 0.498531 -0.036669 0.747797
vertex 0.498531 -0.036669 0.748394
vertex 0.499020 -0.036669 0.748394
endloop
endfacet
facet normal 0.000000 1.000000 0.000000
outer loop
vertex 0.498531 -0.036669 0.747797
vertex 0.499020 -0.036669 0.748394
vertex 0.499020 -0.036669 0.747797
endloop
endfacet
facet normal -1.000000 0.000000 0.000000
outer loop
vertex 0.499020 -0.036669 0.747797
vertex 0.499020 -0.036669 0.748394
vertex 0.499020 -0.034309 0.748394
endloop
endfacet
facet normal -1.000000 0.000000 0.000000
outer loop
vertex 0.499020 -0.036669 0.747797
vertex 0.499020 -0.034309 0.748394
vertex 0.499020 -0.034309 0.747797
endloop
endfacet
facet normal 0.000000 -1.000000 0.000000
outer loop
vertex 0.448928 -0.034309 0.747797
vertex 0.448928 -0.034309 0.748394
vertex 0.448051 -0.034309 0.748394
endloop
endfacet
facet normal 0.000000 -1.000000 0.000000
outer loop
vertex 0.448928 -0.034309 0.747797
vertex 0.448051 -0.034309 0.748394
vertex 0.448051 -0.034309 0.747797
endloop
endfacet
facet normal 0.000000 -1.000000 0.000000
outer loop
vertex 0.498531 -0.034309 0.747797
vertex 0.498531 -0.034309 0.748394
vertex 0.448928 -0.034309 0.748394
endloop
endfacet
facet normal 0.000000 -1.000000 0.000000
outer loop
vertex 0.498531 -0.034309 0.747797
vertex 0.448928 -0.034309 0.748394
vertex 0.448928 -0.034309 0.747797
endloop
endfacet
facet normal 0.000000 1.000000 0.000000
outer loop
vertex 0.448051 -0.036669 0.747797
vertex 0.448051 -0.036669 0.748394
vertex 0.448928 -0.036669 0.748394
endloop
endfacet
facet normal 0.000000 1.000000 0.000000
outer loop
vertex 0.448051 -0.036669 0.747797
vertex 0.448928 -0.036669 0.748394
vertex 0.448928 -0.036669 0.747797
endloop
endfacet
facet normal 0.000000 -1.000000 0.000000
outer loop
vertex 0.499020 -0.034309 0.747797
vertex 0.499020 -0.034309 0.748394
vertex 0.498531 -0.034309 0.748394
endloop
endfacet
facet normal 0.000000 -1.000000 0.000000
outer loop
vertex 0.499020 -0.034309 0.747797
vertex 0.498531 -0.034309 0.748394
vertex 0.498531 -0.034309 0.747797
endloop
endfacet
facet normal -0.000000 1.000000 0.000000
outer loop
vertex 0.448928 -0.036669 0.747797
vertex 0.448928 -0.036669 0.748394
vertex 0.498531 -0.036669 0.748394
endloop
endfacet
facet normal -0.000000 1.000000 0.000000
outer loop
vertex 0.448928 -0.036669 0.747797
vertex 0.498531 -0.036669 0.748394
vertex 0.498531 -0.036669 0.747797
endloop
endfacet
endsolid Exported from Blender-2.80 (sub 75)
